PathFileType	4	(X/Y/Z)	Kaydara	
DataRate	CameraRate	NumFrames	NumMarkers	Units	OrigDataRate	OrigDataStartFrame	OrigNumFrames	
120.00	120.00	4	72	mm	120.00	34	268	
Frame#	Time	Hips			RightUpLeg			RightLeg			RightFoot			RightFoot_End			LeftUpLeg			LeftLeg			LeftFoot			LeftFoot_End			Spine			Spine1			Spine2			Spine3			Neck			Head			Head_End			RightShoulder			RightArm			RightForeArm			RightHand			RightHandThumb1			RightHandThumb2			RightHandThumb3			RightHandThumb3_End			RightInHandIndex			RightHandIndex1			RightHandIndex2			RightHandIndex3			RightHandIndex3_End			RightInHandMiddle			RightHandMiddle1			RightHandMiddle2			RightHandMiddle3			RightHandMiddle3_End			RightInHandRing			RightHandRing1			RightHandRing2			RightHandRing3			RightHandRing3_End			RightInHandPinky			RightHandPinky1			RightHandPinky2			RightHandPinky3			RightHandPinky3_End			LeftShoulder			LeftArm			LeftForeArm			LeftHand			LeftHandThumb1			LeftHandThumb2			LeftHandThumb3			LeftHandThumb3_End			LeftInHandIndex			LeftHandIndex1			LeftHandIndex2			LeftHandIndex3			LeftHandIndex3_End			LeftInHandMiddle			LeftHandMiddle1			LeftHandMiddle2			LeftHandMiddle3			LeftHandMiddle3_End			LeftInHandRing			LeftHandRing1			LeftHandRing2			LeftHandRing3			LeftHandRing3_End			LeftInHandPinky			LeftHandPinky1			LeftHandPinky2			LeftHandPinky3			LeftHandPinky3_End			
		X1	Y1	Z1	X2	Y2	Z2	X3	Y3	Z3	X4	Y4	Z4	X5	Y5	Z5	X6	Y6	Z6	X7	Y7	Z7	X8	Y8	Z8	X9	Y9	Z9	X10	Y10	Z10	X11	Y11	Z11	X12	Y12	Z12	X13	Y13	Z13	X14	Y14	Z14	X15	Y15	Z15	X16	Y16	Z16	X17	Y17	Z17	X18	Y18	Z18	X19	Y19	Z19	X20	Y20	Z20	X21	Y21	Z21	X22	Y22	Z22	X23	Y23	Z23	X24	Y24	Z24	X25	Y25	Z25	X26	Y26	Z26	X27	Y27	Z27	X28	Y28	Z28	X29	Y29	Z29	X30	Y30	Z30	X31	Y31	Z31	X32	Y32	Z32	X33	Y33	Z33	X34	Y34	Z34	X35	Y35	Z35	X36	Y36	Z36	X37	Y37	Z37	X38	Y38	Z38	X39	Y39	Z39	X40	Y40	Z40	X41	Y41	Z41	X42	Y42	Z42	X43	Y43	Z43	X44	Y44	Z44	X45	Y45	Z45	X46	Y46	Z46	X47	Y47	Z47	X48	Y48	Z48	X49	Y49	Z49	X50	Y50	Z50	X51	Y51	Z51	X52	Y52	Z52	X53	Y53	Z53	X54	Y54	Z54	X55	Y55	Z55	X56	Y56	Z56	X57	Y57	Z57	X58	Y58	Z58	X59	Y59	Z59	X60	Y60	Z60	X61	Y61	Z61	X62	Y62	Z62	X63	Y63	Z63	X64	Y64	Z64	X65	Y65	Z65	X66	Y66	Z66	X67	Y67	Z67	X68	Y68	Z68	X69	Y69	Z69	X70	Y70	Z70	X71	Y71	Z71	X72	Y72	Z72	

34	0.275	6446.805	859.65103	-201.189	6539.02093727882	850.2530333808367	-244.39036260783647	6386.091954780541	462.4626218618888	-310.1883406587416	6419.80041593817	35.032111050295896	-367.6802998074654	6328.654953677352	-39.18643815305776	-202.26096101312294	6364.64135376167	841.9560176588634	-143.06759984640345	6243.987395846386	443.9204906525763	-91.31176139854155	6195.031972976784	53.01006735331991	48.362980068150186	6221.703644510192	-0.5950036597184472	229.83960100100802	6397.206973639712	978.53321598405	-263.8421241669828	6340.248971982677	1038.9966844024939	-314.9003723509453	6273.653975979061	1094.3856665494059	-368.1685518762053	6200.6332951364475	1135.9511484291709	-418.804435561531	6121.604336508371	1180.6608192793153	-469.49701976237105	6071.720749262274	1249.2976104897384	-426.55048925488956	6048.710368621659	1333.582696504419	-291.97725701742104	6166.884038049672	1167.6076551651634	-478.6711472063581	6239.744000030787	1141.6668571591579	-580.3131788847468	6241.448505053106	886.6879799857484	-584.9010111361223	6279.206587755856	698.783019043349	-645.7397357932716	6276.723159657778	685.5720231778831	-668.9700112009627	6256.765684305167	672.5491263632593	-684.320029446082	6243.85862487341	662.1298631366883	-692.3798291060916	6233.946623743394	652.2887852482799	-696.8490763091348	6282.150979614033	678.7745189641082	-661.9612940676135	6281.2232364036945	646.417273314772	-675.7521777186967	6269.349553769733	627.8825597951277	-683.8129372370529	6255.06904187601	622.1562603826615	-689.053219537835	6238.595718979242	621.3266823952193	-693.5450075861984	6284.345839232951	676.4179467311183	-654.2552146834181	6284.631348742638	643.5818595276353	-663.5386417471439	6271.953390910728	623.1557811854934	-671.2710815852545	6254.858151683643	616.15077187758	-677.0829734172827	6236.898327150329	615.1961825121832	-681.749716653064	6286.040487505472	675.5230315984967	-648.4600989183587	6288.119423016569	645.1555075465079	-651.7526928391638	6277.3522357113725	627.1989709873117	-657.390717352058	6261.012776130963	620.3607960240507	-662.4117346470673	6244.197213437513	619.4247287927868	-666.5224254542633	6287.072820414733	675.8678391440274	-641.3723023322832	6290.019419106975	648.0301334783385	-640.0309672933472	6281.828960634885	633.5452033508171	-642.8127026809697	6270.119626317096	628.5061377920905	-645.6367485507125	6255.343898871581	627.6474247012718	-648.7956996424801	6128.823417547964	1167.7253737344506	-424.97542760417207	6077.871393653401	1116.9415713965657	-316.82748910787717	6148.962436634058	924.810392351151	-481.05495689178133	6321.607322526821	764.5573153164014	-494.6494500651936	6298.9771406644995	757.8358728322352	-503.1567835921672	6293.130765600868	748.2058541495742	-535.2019043178052	6291.279343701897	739.6625798296693	-558.9099891725336	6291.635038125841	730.9689772594394	-579.8650881638837	6303.522288221345	750.1498436327581	-507.1692042188459	6289.906547922943	723.415831960311	-539.0783088672745	6287.571073229712	707.3993144588526	-570.6719563703028	6289.286282999775	702.4330637234723	-591.8570088580731	6292.842315982028	701.6892287131316	-610.4328718868111	6310.373577743868	746.2071908508296	-510.29043999340774	6300.797023265409	717.9983190172538	-543.0992211616119	6299.2056536822765	700.0908363669784	-577.8942374331946	6301.734280887673	693.8927779596307	-603.6068152338175	6305.848507365715	692.9785221465658	-624.006838231541	6315.500771330111	744.0603111259305	-511.6014433532432	6311.1914667022975	716.7883139577963	-541.9090052490841	6310.798436138581	700.7852372234202	-572.5127870533543	6313.765384621326	694.597042868509	-597.4613535677255	6317.883949361736	693.6380583961867	-616.7120552987909	6322.282731292677	742.7039234593652	-512.8172554002342	6322.30325871645	716.6990556697542	-541.1069889772109	6323.558546660796	703.3876313435378	-565.912868387605	6326.482119758643	698.633640331112	-584.2553367332431	6330.567579646064	697.6458447650868	-601.39170921146
35	0.283	6446.805	859.65103	-201.189	6538.678960967359	850.2943362912346	-244.35119550520832	6386.596880356499	462.3305532028942	-310.1096932626909	6420.035782804015	35.436586994360624	-368.6363649528923	6329.54702848556	-39.08608938387078	-203.58254291311914	6364.940444896543	841.8805325786866	-143.141475120721	6244.45101290479	443.8622957356381	-91.07031697192033	6195.680466057536	52.822402788188334	48.68065479117136	6222.630347799464	-0.6431854660691663	230.15423698513132	6397.415229675249	978.6804572960382	-263.6926299994489	6340.595541013941	1039.3238172236922	-314.6541571440497	6274.23143826244	1095.0337455825693	-367.83016727448967	6201.372246422627	1136.8401231249081	-418.421436613084	6122.529568584215	1181.8198702637974	-469.0684883094704	6072.664070702092	1250.5569658046609	-426.231868264014	6049.922522386198	1334.8847871569037	-291.6902330621005	6167.690796893506	1168.717079579024	-478.2393750608181	6240.514848720944	1143.06093601491	-579.9513081653148	6242.2297008423275	887.8718171576807	-585.0975373688281	6279.529414812701	698.5432176455147	-646.375199009333	6277.781418135379	685.2326457755049	-669.9121782474485	6258.156363982171	671.8612295480211	-685.7240090866918	6245.37355565662	661.1756900451301	-694.0784111750345	6235.473390595776	651.092467478485	-698.7701545560153	6282.908490950337	678.3567581539655	-662.8148025682109	6282.176993286382	645.5741323072334	-676.925376716212	6270.353190063873	626.6620153923727	-685.3154213244894	6256.128238840099	620.70862023218	-690.8162395427365	6239.717464089109	619.6961583229142	-695.5613248785878	6284.800705524072	675.9470237231269	-655.029226849893	6285.113951015038	642.6673012310272	-664.5814402905673	6272.449743220754	621.823664246492	-672.6618027329706	6255.402015960335	614.5419196796854	-678.7825543306415	6237.5011408984965	613.3858838351825	-683.7237931786183	6286.276745560167	675.0259921870118	-649.168591458413	6288.191408490663	644.2399307501646	-652.6416923145202	6277.394582437896	625.9142778932954	-658.5709123349675	6261.078847516276	618.8064238104414	-663.8834476737514	6244.308237310621	617.679645072945	-668.2491998152524	6287.049716015563	675.3483937522041	-642.005451398786	6289.686544480909	647.1148292945481	-640.779312403097	6281.408130118197	632.3280786002067	-643.7746407179254	6269.685034099469	627.0892866227864	-646.8018468844108	6254.931248087646	626.0598954105922	-650.1812882549301	6129.748226585781	1168.7511279459436	-424.5794055483719	6078.945282105577	1117.7555714346558	-316.60371048763403	6149.871911279437	925.6045157506495	-480.8100404249214	6322.4154753912135	764.7796452406515	-494.897950245568	6299.545642372646	758.3018478440423	-504.00035642513103	6293.817208751582	748.8299721980593	-536.188444673848	6292.067775505135	740.3486926228101	-559.9197451633146	6292.525478197624	731.6655932083029	-580.8288849541522	6304.106068858148	750.4615444794204	-507.8234863734705	6290.367917302387	723.7032196743324	-539.9405110056057	6288.128362969391	707.6915400841947	-571.5196921316584	6289.995941955077	702.7813376616044	-592.6544464492404	6293.740643790292	702.1196714905279	-611.1608164636365	6311.024227649582	746.3898497573157	-510.72226853217603	6301.3643945550575	718.087458423661	-543.6135686833478	6299.887139743153	700.1683342471185	-578.3625738661065	6302.604128151334	694.0297763295447	-603.999964276557	6306.926996426049	693.2014808471206	-624.3168981065512	6316.200054560342	744.1518818633822	-511.8719611237831	6311.853261014744	716.7154202426857	-542.1168358871533	6311.5694990126	700.6850552028008	-572.6494778069512	6314.723344455386	694.5451511658032	-597.509038016045	6319.040552848485	693.6626772873251	-616.6738043077011	6323.055269394475	742.6954718551424	-512.8867045387328	6323.08071737011	716.4762734452318	-540.9989379916846	6324.438977842463	703.1169763923037	-565.6996957921931	6327.506359732842	698.3856211113459	-583.9539480818358	6331.772093624313	697.4583574096233	-601.0007897347947
36	0.292	6446.805	859.65103	-201.189	6538.348457170619	850.3516281750451	-244.30020072702027	6387.1064737299685	462.21462785233655	-310.01626484996115	6420.319540461014	35.84857531951096	-369.53211614668123	6330.485300652195	-38.97022430165653	-204.83388103668108	6365.229053619118	841.7873956106484	-143.23146410470858	6244.927277745301	443.7793387832211	-90.84854347185667	6196.339303547294	52.63096232204826	49.03842005801924	6223.575035631791	-0.651352400280377	230.5183745090649	6397.618481037418	978.8339990501817	-263.52515279118944	6340.939764998038	1039.6637889399155	-314.38365435706567	6274.805744339123	1095.6944371825962	-367.46381875945167	6202.116281053027	1137.7516211361562	-418.01213690886783	6123.469134041316	1183.0123294810626	-468.6159984956769	6073.63001439314	1251.8541872641822	-425.88578911969194	6051.152439829277	1336.2195714847305	-291.37240202606154	6168.519255495808	1169.8703504267303	-477.77674240246813	6241.353571269614	1144.5523225353436	-579.5411291194936	6243.199246637802	889.152072657528	-585.372440692509	6280.229084506765	698.4426295143451	-647.2710078121002	6279.249985642186	685.0605386128334	-671.0997952371547	6259.996762378566	671.3610529148464	-687.3885229117706	6247.364349817739	660.4200412490343	-696.0530237638197	6237.496704138857	650.1007404980919	-700.9844521990486	6284.074255839481	678.0965780609271	-663.9287356295866	6283.584199667761	644.9036435157204	-678.3843601585495	6271.844210740587	625.624302544282	-687.1296307741374	6257.694832577149	619.4516010227608	-692.9056303647654	6241.362438361696	618.2636878460296	-697.9151353886056	6285.658833789059	675.6237934814417	-656.0767516085974	6286.041197365621	641.9097876672884	-665.9295636772003	6273.426967215094	620.6583457748166	-674.3878104535889	6256.450511163007	613.1086138117438	-680.8358852183376	6238.625721956401	611.7589483086513	-686.0641756833769	6286.911560983169	674.6692587523643	-650.1591496263443	6288.694881702742	643.4665811198038	-653.848556052903	6277.89910821255	624.7789149077538	-660.0967283352973	6261.629545763169	617.4090770674595	-665.7194631344588	6244.919777883933	616.0985846694721	-670.3524956288971	6287.418632016811	674.9604327085557	-642.93015576306	6289.771795446198	646.3272831125363	-641.8577495123562	6281.42847784559	631.2422096426495	-645.0913032605259	6269.707256530534	625.8082448885532	-648.3364598544107	6254.989063561136	624.6137648292079	-651.9478853679547	6130.672782586188	1169.7920057815775	-424.1628765097097	6079.976608699288	1118.5309622441089	-316.39767307121105	6150.794564309345	926.4541896345843	-480.69780569100374	6323.389893113004	765.1577253218422	-495.31896226282925	6300.303932455911	758.9610366113299	-505.0373140852658	6294.707707710419	749.6581094904172	-537.3741255138663	6293.064934920727	741.2431236546913	-561.1326461920355	6293.624037347978	732.5713515571116	-581.9991620841263	6304.862413954883	750.960590695669	-508.6749850656591	6290.994172164907	724.204491677425	-541.029313715309	6288.847929877822	708.2040541629723	-572.604168805774	6290.872641839895	703.3478278927603	-593.6869939759157	6294.814262626245	702.7625320642992	-612.1171684630614	6311.833522040678	746.7495828077477	-511.34979091927056	6302.075390404467	718.3740049679394	-544.3514496798575	6300.707595764823	700.448771055874	-579.0651998025743	6303.617824911996	694.3665147326026	-604.625286759949	6308.157940239166	693.6174952141348	-624.8517255545585	6317.048280065133	744.4126995932548	-512.3364576268868	6312.641928103473	716.8235135506083	-542.5424295602696	6312.461553718755	700.7691599081203	-573.0129455614453	6315.806034184277	694.6736523920446	-597.7812665980795	6320.329518358869	693.8610211282931	-616.8530431914797	6323.966291817666	742.8456366625824	-513.1464339625788	6323.969754772852	716.4166883890994	-541.1010822608326	6325.423529637666	703.0097346737138	-565.7032687188047	6328.636117155815	698.2970013346826	-583.8673532711608	6333.088120593947	697.4236872989854	-600.8182292480061
37	0.3	6446.805	859.65103	-201.189	6538.0291123046945	850.424381317965	-244.2372104949098	6387.618860384114	462.11466952137187	-309.9070847907318	6420.652950397884	36.26774418310856	-370.36510152208643	6331.470734968661	-38.83870547334911	-206.01197487272006	6365.507558348333	841.677218463772	-143.33766041491538	6245.41625749377	443.67226056599515	-90.64698991635282	6197.006954415764	52.43724980392274	49.436003725012895	6224.535583582869	-0.6180834889250519	230.9314933575003	6397.816463502273	978.9935063911673	-263.34002601374027	6341.281282370816	1040.0160082900352	-314.08930645098246	6275.376041881303	1096.366305070135	-367.07005234429926	6202.864495745988	1138.6839947383094	-417.57700197189405	6124.421999789501	1184.2362208306415	-468.1398911984196	6074.617563805292	1253.1871063919618	-425.51254094611886	6052.3978805716315	1337.58513985974	-291.02437973260214	6169.3683114294145	1171.0653694298876	-477.28317863417163	6242.257887781102	1146.138300044929	-579.0801012584911	6244.358192649082	890.5304749704762	-585.7200595392455	6281.309553781042	698.4927711479918	-648.4211830638411	6281.130717276277	685.0688805340042	-672.5248915242225	6262.288647807974	671.0644475035315	-689.3036780199272	6249.833055906625	659.8805984063962	-698.2926883363224	6240.019137977333	649.332786157447	-703.4803021114096	6285.651035142821	678.007117405946	-665.2958943115711	6285.447583077259	644.4216765076521	-680.12079807612	6273.8259750508605	624.7876400827533	-689.2461953533251	6259.7726596454795	618.4049412810089	-695.3111177225801	6243.534930461073	617.0503072458139	-700.5952429879134	6286.923943749246	675.4612386091603	-657.3913055375021	6287.417293464483	641.3248804542143	-667.5758124093283	6274.890085344705	619.677922005752	-676.4408678788337	6258.009296751377	611.8707700970531	-683.2336854261625	6240.278254200848	610.3367049943206	-688.7605976501299	6287.949327349672	674.4656297017611	-651.4258283755196	6289.63524373106	642.8503961531115	-655.3671763119845	6278.872055567898	623.8099951575705	-661.9612544431731	6262.67179664672	616.1876062418703	-667.9119169447516	6246.039286619016	614.7017183842366	-672.8235472704682	6288.184774510103	674.7164961920616	-644.1410921436737	6290.281788208524	645.6818246231244	-643.2612024881136	6281.897491571705	630.3036066887265	-646.7571292945423	6270.194375381221	624.6802601886093	-650.2344077545965	6255.525947786902	623.3274330141032	-654.0885567179342	6131.59617701906	1170.846335831078	-423.7267230642643	6080.964893507258	1119.2678038815554	-316.2118128067048	6151.730185955631	927.3622880910823	-480.7175607996224	6324.529539191847	765.7003376215326	-495.90991347952684	6301.252948802088	759.8224768141248	-506.2630023402942	6295.803085799142	750.6987498919272	-538.753219628967	6294.271331749013	742.3540652076119	-562.5425042094474	6294.930764052663	733.6942820044849	-583.3695923144332	6305.791770926552	751.6565021645393	-509.7198431184843	6291.7864406904455	724.9301184462345	-542.3401259101266	6289.7304877758315	708.9473399824026	-573.9204905693462	6291.916488959039	704.1425191777771	-594.9495028923965	6296.062539930298	703.627040921044	-613.2965274879103	6312.801206696019	747.2961018862492	-512.1699642256626	6302.930041330795	718.8687017546356	-545.3095457567086	6301.66650421849	700.9429253159045	-579.9985743949633	6304.77407467647	694.9131805268114	-605.478989759682	6309.539211489059	694.235932293468	-625.6072777582763	6318.044688169904	744.8525949825662	-512.9924835603595	6313.556547017678	717.1234734657348	-543.1836043390254	6313.47310307835	701.048482002033	-573.6009274440196	6317.011152919315	694.9929177121066	-598.2755932739682	6321.747739020868	694.2426948698046	-617.2471193721634	6325.014376535499	743.1642996869986	-513.5947027022403	6324.968418442613	716.5312010027025	-541.4123612670476	6326.509635041864	703.0768744882023	-565.9226368799458	6329.8681647345775	698.3783542127229	-583.9945530870797	6334.511676668562	697.5517363910348	-600.8428943084948
